<?xml version="1.0" encoding="utf-8"?><!-- Uploaded to: SVG Repo, www.svgrepo.com, Generator: SVG Repo Mixer Tools -->
<svg width="800px" height="800px" viewBox="-0.48 0 41.979 41.979" xmlns="http://www.w3.org/2000/svg">
  <path id="bag" d="M424.2,456.124a183.615,183.615,0,0,1-35.4,0A3.392,3.392,0,0,1,386,453.506c-.068-8.059,1.549-16.37,4.021-24.862a3.179,3.179,0,0,1,2.72-2.63c1.076-.081,2.151-.12,3.227-.182-.014-.217-.033-.432-.033-.652a10.175,10.175,0,1,1,20.351,0c0,.205-.019.405-.031.607,1.339.071,2.678.126,4.017.226a3.179,3.179,0,0,1,2.72,2.63c2.472,8.492,4.089,16.8,4.021,24.862A3.392,3.392,0,0,1,424.2,456.124ZM395.931,434.19a1.954,1.954,0,1,0,1.954-1.96A1.957,1.957,0,0,0,395.931,434.19Zm10.176-16.822a7.826,7.826,0,1,0,7.815,7.826A7.82,7.82,0,0,0,406.107,417.368Zm8.222,14.862a1.96,1.96,0,1,0,1.954,1.96A1.957,1.957,0,0,0,414.328,432.23Z" transform="translate(-385.994 -415)" fill="#2d5be2"/>
</svg>