<?xml version="1.0" encoding="iso-8859-1"?>
<!-- Uploaded to: SVG Repo, www.svgrepo.com, Generator: SVG Repo Mixer Tools -->
<svg version="1.1" id="Layer_1" xmlns="http://www.w3.org/2000/svg" xmlns:xlink="http://www.w3.org/1999/xlink" 
	 viewBox="0 0 511.787 511.787" xml:space="preserve">
<g transform="translate(1 1)">
	<g>
		<path style="fill:#FFE100;" d="M499.373,393.987l-40.107-228.693h-204.8h-204.8L10.413,393.987
			c-2.56,15.36-3.413,29.867-2.56,45.227c1.707,22.187,5.12,50.347,16.213,50.347h230.4h230.4c11.093,0,15.36-28.16,16.213-50.347
			C502.787,423.853,501.933,408.493,499.373,393.987"/>
		<path style="fill:#FFE100;" d="M398.68,165.293C390.147,111.533,352.6,20.227,263,20.227s-126.293,91.307-134.827,145.067h34.987
			c2.56-11.947,7.68-32.427,17.92-52.907c19.627-38.4,46.933-58.027,81.92-58.027s63.147,19.627,82.773,58.027
			c10.24,20.48,15.36,40.96,17.92,52.907H398.68z"/>
	</g>
	<g>
		<path style="fill:#FDCC00;" d="M49.667,165.293L10.413,393.987c-2.56,15.36-3.413,29.867-2.56,45.227
			c0.853,14.507,2.56,31.573,6.827,41.813h0.853c0,0,76.8-65.707,76.8-315.733H49.667z"/>
		<path style="fill:#FDCC00;" d="M459.267,165.293l39.253,228.693c2.56,15.36,3.413,29.867,2.56,45.227
			c-0.853,14.507-2.56,31.573-6.827,41.813H493.4c0,0-76.8-65.707-76.8-315.733H459.267z"/>
	</g>
	<path style="fill:#FFA800;" d="M499.373,393.987L460.12,165.293h-42.667c0,2.56,0,5.973,0,8.533h25.6l39.253,228.693
		c2.56,15.36,3.413,29.867,2.56,45.227c0,6.827-0.853,13.653-1.707,20.48c6.827,9.387,11.093,12.8,11.093,12.8l0.853-0.853
		c4.267-10.24,5.973-27.307,6.827-41.813C502.787,423.853,501.933,408.493,499.373,393.987"/>
	<path style="fill:#FFFFFF;" d="M10.413,393.987l39.253-228.693h42.667c0,2.56,0,5.973,0,8.533h-25.6L27.48,402.52
		c-2.56,15.36-3.413,29.867-2.56,45.227c0,6.827,0.853,13.653,1.707,20.48c-6.827,9.387-11.093,12.8-11.093,12.8l-0.853-0.853
		c-4.267-10.24-5.973-27.307-6.827-41.813C7,423.853,7.853,408.493,10.413,393.987"/>
	<g>
		<path style="fill:#00DA6C;" d="M193.027,199.427h-30.72c-5.973,0-10.24-4.267-10.24-10.24v-23.893h51.2v23.893
			C203.267,195.16,199,199.427,193.027,199.427"/>
		<path style="fill:#00DA6C;" d="M211.8,284.76c0,18.773-15.36,34.133-34.133,34.133s-34.133-15.36-34.133-34.133
			s15.36-34.133,34.133-34.133S211.8,265.987,211.8,284.76"/>
	</g>
	<path d="M484.867,498.093h-460.8c-15.36,0-23.04-17.92-24.747-58.88c-0.853-15.36,0-31.573,2.56-46.933l40.96-235.52h424.107
		l40.96,235.52c2.56,16.213,3.413,31.573,2.56,46.933C507.907,480.173,500.227,498.093,484.867,498.093z M24.92,481.027h459.947
		c0.853-1.707,6.827-9.387,8.533-42.667c0.853-14.507,0-29.013-2.56-43.52l-38.4-221.013H57.347l-38.4,221.013
		c-2.56,15.36-3.413,29.867-2.56,43.52C18.093,471.64,24.067,479.32,24.92,481.027z"/>
	<path d="M193.027,207.96h-30.72c-10.24,0-18.773-8.533-18.773-18.773V156.76H211.8v32.427
		C211.8,199.427,204.12,207.96,193.027,207.96z M160.6,173.827v15.36c0,0.853,0.853,1.707,1.707,1.707h30.72
		c0.853,0,1.707-0.853,1.707-1.707v-15.36H160.6z"/>
	<rect x="169.133" y="199.427" width="17.067" height="59.733"/>
	<path d="M177.667,327.427c-23.893,0-42.667-18.773-42.667-42.667c0-23.893,18.773-42.667,42.667-42.667
		s42.667,18.773,42.667,42.667C220.333,308.653,201.56,327.427,177.667,327.427z M177.667,259.16c-14.507,0-25.6,11.093-25.6,25.6
		c0,14.507,11.093,25.6,25.6,25.6c14.507,0,25.6-11.093,25.6-25.6C203.267,270.253,192.173,259.16,177.667,259.16z"/>
	<path d="M186.2,293.293h-17.067c-5.12,0-8.533-3.413-8.533-8.533c0-5.12,3.413-8.533,8.533-8.533H186.2
		c5.12,0,8.533,3.413,8.533,8.533C194.733,289.88,191.32,293.293,186.2,293.293z"/>
	<path d="M408.92,173.827h-52.053L355.16,167c-2.56-12.8-7.68-31.573-17.067-50.347c-17.92-35.84-42.667-53.76-75.093-53.76
		c-31.573,0-57.173,17.92-75.093,53.76C178.52,135.427,173.4,154.2,170.84,167l-0.853,6.827h-52.053l1.707-10.24
		c8.533-56.32,49.493-151.893,143.36-151.893s134.827,95.573,144.213,151.893L408.92,173.827z M370.52,156.76h17.92
		c-11.093-52.053-47.787-128-125.44-128s-114.347,75.947-125.44,128h17.92c3.413-13.653,8.533-30.72,17.067-47.787
		C193.88,67.16,224.6,45.827,263,45.827s69.12,21.333,90.453,63.147C361.987,126.04,367.96,143.107,370.52,156.76z"/>
	<path d="M16.387,492.12l-8.533-5.973L7,483.587c-4.267-9.387-6.827-23.893-7.68-44.373c-0.853-15.36,0-31.573,2.56-46.933
		l40.96-235.52h58.027v8.533c0,251.733-76.8,319.147-80.213,322.56L16.387,492.12z M57.347,173.827l-38.4,221.013
		c-2.56,15.36-3.413,29.867-2.56,43.52c0.853,10.24,1.707,18.773,2.56,25.6c19.627-26.453,64-105.813,64.853-290.133H57.347z"/>
	<path d="M493.4,491.267L488.28,487c-3.413-2.56-80.213-69.973-80.213-321.707v-8.533h58.027l40.96,235.52
		c2.56,16.213,3.413,31.573,2.56,46.933c-0.853,19.627-3.413,34.987-7.68,44.373l-0.853,2.56L493.4,491.267z M425.133,173.827
		c1.707,184.32,45.227,263.68,64.853,290.133c1.707-6.827,2.56-15.36,2.56-25.6c0.853-13.653,0-29.013-2.56-43.52L452.44,173.827
		H425.133z"/>
</g>
</svg>