<?xml version="1.0" encoding="iso-8859-1"?>
<!-- Uploaded to: SVG Repo, www.svgrepo.com, Generator: SVG Repo Mixer Tools -->
<svg version="1.1" id="Layer_1" xmlns="http://www.w3.org/2000/svg" xmlns:xlink="http://www.w3.org/1999/xlink" 
	 viewBox="0 0 512 512" xml:space="preserve">
<path style="fill:#8460C8;" d="M468.901,322.395H43.098L17.755,479.892c-2.035,12.646,7.732,24.109,20.54,24.109h435.411
	c12.808,0,22.574-11.463,20.54-24.109L468.901,322.395z"/>
<path style="opacity:0.1;enable-background:new    ;" d="M468.901,322.395H43.098l-7.41,46.044
	c12.251,22.951,36.39,38.181,63.64,38.181H412.67c27.25,0,51.388-15.229,63.64-38.181L468.901,322.395z"/>
<path style="fill:#9C7CD3;" d="M439.773,266.187H72.227c-27.535,0-48.517,24.665-44.104,51.844l0,0
	c5.671,34.919,35.828,60.575,71.206,60.575h313.342c35.377,0,65.535-25.654,71.206-60.575l0,0
	C488.29,290.851,467.308,266.187,439.773,266.187z"/>
<path style="fill:#FDD05F;" d="M293.287,450.724h-74.566c-15.357,0-27.852-12.494-27.852-27.852v-30.134
	c0-15.359,12.494-27.853,27.852-27.853h74.566c15.357,0,27.852,12.494,27.852,27.853v30.134
	C321.138,438.228,308.644,450.724,293.287,450.724z M222.968,392.325c-2.573,0-4.659,2.086-4.659,4.659v21.64
	c0,2.563,2.097,4.659,4.659,4.659h66.071c2.563,0,4.659-2.097,4.659-4.659v-21.639c0-2.564-2.098-4.66-4.66-4.66L222.968,392.325
	L222.968,392.325z"/>
<path style="opacity:0.1;enable-background:new    ;" d="M297.197,446.813H222.63c-15.357,0-27.852-12.494-27.852-27.852v-30.134
	c0-6.686,2.369-12.827,6.31-17.632c-6.234,5.112-10.221,12.871-10.221,21.543v30.134c0,15.357,12.494,27.852,27.852,27.852h74.566
	c8.672,0,16.431-3.986,21.542-10.22C310.024,444.444,303.882,446.813,297.197,446.813z"/>
<path style="fill:#8460C8;" d="M419.812,266.186h-37.418v-94.376c0-69.693-56.699-126.392-126.391-126.392
	s-126.391,56.699-126.391,126.392v94.376H92.195v-94.376c0-90.325,73.485-163.81,163.809-163.81s163.809,73.485,163.809,163.81
	V266.186z"/>
<path style="fill:#FDD05F;" d="M135.374,232.005H86.981c-4.091,0-7.406,3.316-7.406,7.406v26.774h63.206v-26.774
	C142.78,235.321,139.464,232.005,135.374,232.005z"/>
<rect x="79.578" y="255.998" style="opacity:0.1;enable-background:new    ;" width="63.208" height="10.186"/>
<path style="opacity:0.4;fill:#FFFFFF;enable-background:new    ;" d="M135.374,232.005H123.16
	c-0.975,1.829-1.531,3.915-1.531,6.132c0,7.216,5.849,13.064,13.064,13.064c3.056,0,5.862-1.058,8.087-2.816v-8.973
	C142.78,235.321,139.464,232.005,135.374,232.005z"/>
<path style="fill:#FDD05F;" d="M425.025,232.005h-48.392c-4.091,0-7.406,3.316-7.406,7.406v26.774h63.206v-26.774
	C432.432,235.321,429.116,232.005,425.025,232.005z"/>
<rect x="369.232" y="255.998" style="opacity:0.1;enable-background:new    ;" width="63.208" height="10.186"/>
<path style="opacity:0.4;fill:#FFFFFF;enable-background:new    ;" d="M425.025,232.005h-12.214
	c-0.975,1.829-1.531,3.915-1.531,6.132c0,7.216,5.848,13.064,13.064,13.064c3.056,0,5.862-1.058,8.088-2.816v-8.973
	C432.432,235.321,429.116,232.005,425.025,232.005z"/>
<path style="fill:#FDD05F;" d="M433.49,473.235h-46.48c-5.535,0-10.021-4.486-10.021-10.021v-16.188
	c0-5.535,4.487-10.021,10.021-10.021h46.48c5.535,0,10.021,4.487,10.021,10.021v16.188
	C443.512,468.749,439.024,473.235,433.49,473.235z"/>
<g>
	<path style="opacity:0.3;fill:#FFFFFF;enable-background:new    ;" d="M404.819,458.327c-5.695,0-10.312,4.617-10.312,10.312
		c0,1.653,0.399,3.21,1.09,4.595h18.444c0.691-1.385,1.09-2.941,1.09-4.595C415.132,462.944,410.515,458.327,404.819,458.327z
		 M433.49,437.004h-22.129c-0.01,0.256-0.038,0.505-0.038,0.764c0,11.747,9.523,21.27,21.27,21.27c3.997,0,7.723-1.123,10.918-3.04
		v-8.972C443.512,441.49,439.024,437.004,433.49,437.004z"/>
	<path style="opacity:0.3;fill:#FFFFFF;enable-background:new    ;" d="M293.286,364.884h-34.034
		c-2.087,4.694-3.256,9.888-3.256,15.357c0,4.227,0.703,8.287,1.981,12.083h31.06c2.564,0,4.661,2.098,4.661,4.66v21.112
		c0.053,0,0.106,0.004,0.158,0.004c10.721,0,20.393-4.463,27.282-11.624v-13.739C321.138,377.378,308.644,364.884,293.286,364.884z
		 M275.727,435.374c-12.477,0-23.542,6.038-30.439,15.349h47.998c3.919,0,7.651-0.818,11.037-2.285
		C297.381,440.44,287.149,435.374,275.727,435.374z"/>
</g>
<path d="M502.141,478.622l-20.989-130.435c5.226-8.619,8.91-18.352,10.62-28.874c2.481-15.272-1.847-30.792-11.874-42.579
	c-9.884-11.619-24.238-18.338-39.468-18.528v-18.794c0-7.542-5.453-13.823-12.62-15.14v-52.463C427.81,77.072,350.737,0,256.002,0
	S84.196,77.072,84.196,171.808v52.463c-7.168,1.316-12.62,7.597-12.62,15.14v18.794c-15.232,0.187-29.589,6.908-39.475,18.528
	c-10.026,11.786-14.354,27.305-11.874,42.579c1.708,10.523,5.394,20.257,10.62,28.876L9.859,478.622
	c-1.344,8.344,1.03,16.821,6.511,23.255C21.852,508.31,29.842,512,38.295,512h435.411c8.452,0,16.441-3.69,21.923-10.123
	C501.11,495.443,503.484,486.966,502.141,478.622z M100.193,171.808c0-85.914,69.896-155.812,155.809-155.812
	c85.915,0,155.812,69.897,155.812,155.812v52.198h-21.422v-52.198c0-74.102-60.287-134.39-134.39-134.39
	c-74.101,0-134.389,60.287-134.389,134.39v52.198h-21.42V171.808z M424.434,240.003v18.185h-47.209v-18.185H424.434z
	 M137.611,224.188v-52.379c0-65.282,53.111-118.394,118.392-118.394s118.394,53.112,118.394,118.394v52.379
	c-7.435,1.089-13.168,7.492-13.168,15.223v18.777h-210.45v-18.777C150.778,231.68,145.045,225.277,137.611,224.188z M87.573,240.003
	h47.209v18.185H87.573V240.003z M44.285,287.098c6.982-8.206,17.166-12.913,27.941-12.913h367.546
	c10.775,0,20.96,4.707,27.942,12.915c6.982,8.206,9.995,19.013,8.267,29.649c-5.069,31.208-31.694,53.858-63.31,53.858h-91.211
	c-6.569-8.345-16.753-13.72-28.173-13.72H218.72c-11.42,0-21.603,5.375-28.173,13.72H99.328c-31.618,0-58.242-22.65-63.31-53.858
	C34.29,306.113,37.303,295.306,44.285,287.098z M313.141,392.737v30.135c0,10.947-8.907,19.853-19.854,19.853h-74.566
	c-10.948,0-19.854-8.907-19.854-19.853v-30.135c0-10.948,8.907-19.854,19.854-19.854h74.566
	C304.234,372.882,313.141,381.789,313.141,392.737z M483.452,491.502c-2.437,2.861-5.989,4.501-9.746,4.501H38.295
	c-3.757,0-7.31-1.64-9.747-4.501c-2.438-2.861-3.493-6.629-2.896-10.339L44.36,364.899c14.404,13.56,33.787,21.704,54.968,21.704
	h84.077c-0.346,1.995-0.536,4.042-0.536,6.134v30.135c0,19.767,16.083,35.849,35.85,35.849h74.566
	c19.767,0,35.85-16.082,35.85-35.849v-30.135c0-2.092-0.19-4.14-0.536-6.134h84.07c21.182,0,40.564-8.145,54.969-21.705
	l18.707,116.265C486.945,484.873,485.89,488.641,483.452,491.502z M222.968,384.326c-6.98,0-12.658,5.678-12.658,12.658v21.64
	c0,6.98,5.678,12.658,12.658,12.658h66.07c6.98,0,12.658-5.678,12.658-12.658v-21.639c0-6.98-5.679-12.659-12.659-12.659
	L222.968,384.326L222.968,384.326z M285.699,415.285h-59.392v-14.962h59.392V415.285z"/>
</svg>